<svg width="100" height="100" viewBox="0 0 100 100" fill="none" xmlns="http://www.w3.org/2000/svg">
<rect width="100" height="100" fill="white"/>
<circle cx="50" cy="50" r="46" fill="#FFF9F0"/>
<circle cx="49.9997" cy="50" r="41.027" fill="#FFF5E6"/>
<path d="M32.6049 50.8801H47.5628C48.0223 50.8801 48.3938 50.5087 48.3938 50.0491V46.7251C48.3938 46.2656 48.0223 45.8941 47.5628 45.8941H32.6049C32.1454 45.8941 31.7739 46.2656 31.7739 46.7251V50.0491C31.7739 50.5087 32.1454 50.8801 32.6049 50.8801ZM33.4359 47.5561H46.7318V49.2181H33.4359V47.5561Z" fill="#B16D03"/>
<path d="M45.9012 52.5421C44.5267 52.5421 43.4082 53.6606 43.4082 55.0351C43.4082 56.4095 44.5267 57.5281 45.9012 57.5281C47.2756 57.5281 48.3942 56.4095 48.3942 55.0351C48.3942 53.6606 47.2756 52.5421 45.9012 52.5421ZM45.9012 55.8661C45.4425 55.8661 45.0702 55.4938 45.0702 55.0351C45.0702 54.5764 45.4425 54.2041 45.9012 54.2041C46.3599 54.2041 46.7322 54.5764 46.7322 55.0351C46.7322 55.4938 46.3599 55.8661 45.9012 55.8661Z" fill="#B16D03"/>
<path d="M40.0838 52.5421C38.7093 52.5421 37.5908 53.6606 37.5908 55.0351C37.5908 56.4095 38.7093 57.5281 40.0838 57.5281C41.4583 57.5281 42.5768 56.4095 42.5768 55.0351C42.5768 53.6606 41.4583 52.5421 40.0838 52.5421ZM40.0838 55.8661C39.6251 55.8661 39.2528 55.4938 39.2528 55.0351C39.2528 54.5764 39.6251 54.2041 40.0838 54.2041C40.5425 54.2041 40.9148 54.5764 40.9148 55.0351C40.9148 55.4938 40.5425 55.8661 40.0838 55.8661Z" fill="#B16D03"/>
<path d="M34.2669 57.5281C35.6414 57.5281 36.7599 56.4095 36.7599 55.0351C36.7599 53.6606 35.6414 52.5421 34.2669 52.5421C32.8924 52.5421 31.7739 53.6606 31.7739 55.0351C31.7739 56.4095 32.8924 57.5281 34.2669 57.5281ZM34.2669 54.2041C34.7256 54.2041 35.0979 54.5764 35.0979 55.0351C35.0979 55.4938 34.7256 55.8661 34.2669 55.8661C33.8082 55.8661 33.4359 55.4938 33.4359 55.0351C33.4359 54.5764 33.8082 54.2041 34.2669 54.2041Z" fill="#B16D03"/>
<path d="M45.9012 58.3591C44.5267 58.3591 43.4082 59.4776 43.4082 60.852C43.4082 62.2265 44.5267 63.345 45.9012 63.345C47.2756 63.345 48.3942 62.2265 48.3942 60.852C48.3942 59.4776 47.2756 58.3591 45.9012 58.3591ZM45.9012 61.683C45.4425 61.683 45.0702 61.3108 45.0702 60.852C45.0702 60.3933 45.4425 60.0211 45.9012 60.0211C46.3599 60.0211 46.7322 60.3933 46.7322 60.852C46.7322 61.3108 46.3599 61.683 45.9012 61.683Z" fill="#B16D03"/>
<path d="M40.0838 58.3591C38.7093 58.3591 37.5908 59.4776 37.5908 60.852C37.5908 62.2265 38.7093 63.345 40.0838 63.345C41.4583 63.345 42.5768 62.2265 42.5768 60.852C42.5768 59.4776 41.4583 58.3591 40.0838 58.3591ZM40.0838 61.683C39.6251 61.683 39.2528 61.3108 39.2528 60.852C39.2528 60.3933 39.6251 60.0211 40.0838 60.0211C40.5425 60.0211 40.9148 60.3933 40.9148 60.852C40.9148 61.3108 40.5425 61.683 40.0838 61.683Z" fill="#B16D03"/>
<path d="M34.2669 63.345C35.6414 63.345 36.7599 62.2265 36.7599 60.852C36.7599 59.4776 35.6414 58.3591 34.2669 58.3591C32.8924 58.3591 31.7739 59.4776 31.7739 60.852C31.7739 62.2265 32.8924 63.345 34.2669 63.345ZM34.2669 60.0211C34.7256 60.0211 35.0979 60.3933 35.0979 60.852C35.0979 61.3108 34.7256 61.683 34.2669 61.683C33.8082 61.683 33.4359 61.3108 33.4359 60.852C33.4359 60.3933 33.8082 60.0211 34.2669 60.0211Z" fill="#B16D03"/>
<path d="M45.9012 64.176C44.5267 64.176 43.4082 65.2945 43.4082 66.669C43.4082 68.0435 44.5267 69.162 45.9012 69.162C47.2756 69.162 48.3942 68.0435 48.3942 66.669C48.3942 65.2945 47.2756 64.176 45.9012 64.176ZM45.9012 67.5C45.4425 67.5 45.0702 67.1277 45.0702 66.669C45.0702 66.2103 45.4425 65.838 45.9012 65.838C46.3599 65.838 46.7322 66.2103 46.7322 66.669C46.7322 67.1277 46.3599 67.5 45.9012 67.5Z" fill="#B16D03"/>
<path d="M40.0838 64.176C38.7093 64.176 37.5908 65.2945 37.5908 66.669C37.5908 68.0435 38.7093 69.162 40.0838 69.162C41.4583 69.162 42.5768 68.0435 42.5768 66.669C42.5768 65.2945 41.4583 64.176 40.0838 64.176ZM40.0838 67.5C39.6251 67.5 39.2528 67.1277 39.2528 66.669C39.2528 66.2103 39.6251 65.838 40.0838 65.838C40.5425 65.838 40.9148 66.2103 40.9148 66.669C40.9148 67.1277 40.5425 67.5 40.0838 67.5Z" fill="#B16D03"/>
<path d="M34.2669 69.162C35.6414 69.162 36.7599 68.0435 36.7599 66.669C36.7599 65.2945 35.6414 64.176 34.2669 64.176C32.8924 64.176 31.7739 65.2945 31.7739 66.669C31.7739 68.0435 32.8924 69.162 34.2669 69.162ZM34.2669 65.838C34.7256 65.838 35.0979 66.2103 35.0979 66.669C35.0979 67.1277 34.7256 67.5 34.2669 67.5C33.8082 67.5 33.4359 67.1277 33.4359 66.669C33.4359 66.2103 33.8082 65.838 34.2669 65.838Z" fill="#B16D03"/>
<path d="M59.185 35.1079H59.1227C58.8617 33.0644 57.6493 31.2421 55.861 30.2008V29.851C55.861 29.8086 55.8436 29.7712 55.8369 29.7305C55.8278 29.6698 55.8228 29.6092 55.8012 29.5518C55.7812 29.4995 55.748 29.4571 55.7173 29.4097C55.6898 29.3665 55.6674 29.3225 55.6317 29.2851C55.586 29.2361 55.5303 29.2028 55.4746 29.1663C55.4439 29.1463 55.4214 29.1164 55.3874 29.1006C55.379 29.0965 55.3699 29.094 55.3624 29.0898C55.3558 29.0873 55.35 29.0848 55.3433 29.0823C53.5816 28.2571 51.5025 28.2563 49.73 29.0798C49.7258 29.0815 49.7216 29.0823 49.7175 29.0848C49.7083 29.089 49.7 29.0915 49.6909 29.0956C49.6527 29.1131 49.6277 29.1463 49.5937 29.1687C49.5413 29.2036 49.4881 29.2344 49.4449 29.2793C49.4092 29.3183 49.3868 29.364 49.3585 29.4072C49.3286 29.4538 49.2953 29.4953 49.2746 29.5477C49.253 29.6042 49.2488 29.6649 49.2388 29.7255C49.2322 29.7671 49.2147 29.8045 49.2147 29.8468V30.1975C47.4231 31.2388 46.2082 33.062 45.9464 35.107H45.8891C45.4296 35.107 45.0581 35.4785 45.0581 35.938V38.431C45.0581 38.8905 45.4296 39.262 45.8891 39.262H59.185C59.6445 39.262 60.016 38.8905 60.016 38.431V35.938C60.016 35.4793 59.6445 35.1079 59.185 35.1079V35.1079ZM49.2147 32.2226V32.6132C49.2147 33.0728 49.5862 33.4442 50.0457 33.4442C50.5053 33.4442 50.8767 33.0728 50.8767 32.6132V30.4061C51.9495 30.0288 53.1312 30.0305 54.199 30.4078V32.6132C54.199 33.0728 54.5705 33.4442 55.03 33.4442C55.4896 33.4442 55.861 33.0728 55.861 32.6132V32.2276C56.6928 32.978 57.2521 33.996 57.4424 35.1079H47.6267C47.8187 33.9935 48.3796 32.973 49.2147 32.2226ZM58.354 37.6008H46.7201V36.7698H58.354V37.6008Z" fill="#B16D03"/>
<path d="M64.1786 45.9058H66.6716C67.1312 45.9058 67.5026 45.5343 67.5026 45.0748C67.5026 44.6153 67.1312 44.2438 66.6716 44.2438H64.1786C63.7191 44.2438 63.3477 44.6153 63.3477 45.0748C63.3477 45.5343 63.7191 45.9058 64.1786 45.9058Z" fill="#B16D03"/>
<path d="M66.6724 48.3988H63.3476C62.8881 48.3988 62.5166 48.7702 62.5166 49.2298C62.5166 49.6893 62.8881 50.0608 63.3476 50.0608H66.6724C67.1319 50.0608 67.5034 49.6893 67.5034 49.2298C67.5034 48.7702 67.1319 48.3988 66.6724 48.3988Z" fill="#B16D03"/>
<path d="M66.6716 52.5537H64.1786C63.7191 52.5537 63.3477 52.9252 63.3477 53.3847C63.3477 53.8443 63.7191 54.2157 64.1786 54.2157H66.6716C67.1312 54.2157 67.5026 53.8443 67.5026 53.3847C67.5026 52.9252 67.1312 52.5537 66.6716 52.5537Z" fill="#B16D03"/>
<path d="M66.6718 56.7087H65.0107C64.5511 56.7087 64.1797 57.0801 64.1797 57.5397C64.1797 57.9992 64.5511 58.3707 65.0107 58.3707H66.6718C67.1314 58.3707 67.5028 57.9992 67.5028 57.5397C67.5028 57.0801 67.1314 56.7087 66.6718 56.7087Z" fill="#B16D03"/>
<path d="M66.6716 60.8637H64.1786C63.7191 60.8637 63.3477 61.2351 63.3477 61.6947C63.3477 62.1542 63.7191 62.5257 64.1786 62.5257H66.6716C67.1312 62.5257 67.5026 62.1542 67.5026 61.6947C67.5026 61.2351 67.1312 60.8637 66.6716 60.8637Z" fill="#B16D03"/>
<path d="M66.6724 65.0186H63.3476C62.8881 65.0186 62.5166 65.3901 62.5166 65.8496C62.5166 66.3092 62.8881 66.6806 63.3476 66.6806H66.6724C67.1319 66.6806 67.5034 66.3092 67.5034 65.8496C67.5034 65.3901 67.1319 65.0186 66.6724 65.0186Z" fill="#B16D03"/>
<path d="M73.3172 29.2826C73.3164 29.1771 73.2956 29.0724 73.2549 28.9735C73.2125 28.8713 73.1518 28.779 73.0745 28.7026L67.2601 22.884C67.1836 22.8067 67.0914 22.746 66.9892 22.7036C66.8878 22.6612 66.7798 22.6396 66.6717 22.6396H40.0841C39.6246 22.6396 39.2531 23.0111 39.2531 23.4706V42.5702H30.9432C29.5687 42.5702 28.4502 43.6887 28.4502 45.0632V48.3871V69.993V73.3169C28.4502 74.6914 29.5687 75.8099 30.9432 75.8099H49.225C50.5995 75.8099 51.718 74.6914 51.718 73.3169V72.4826H72.4879C72.9474 72.4826 73.3189 72.1112 73.3189 71.6516V29.2926C73.3189 29.2926 73.3189 29.2926 73.3189 29.2917V29.2909C73.3189 29.2876 73.3172 29.2851 73.3172 29.2826V29.2826ZM67.5027 25.4775L70.4827 28.4599H67.5027V25.4775ZM30.1122 45.0632C30.1122 44.6045 30.4845 44.2322 30.9432 44.2322H49.225C49.6837 44.2322 50.056 44.6045 50.056 45.0632V48.3871V69.993C50.056 70.4517 49.6837 70.824 49.225 70.824H30.9432C30.4845 70.824 30.1122 70.4517 30.1122 69.993V48.3871V45.0632ZM49.225 74.1479H30.9432C30.4845 74.1479 30.1122 73.7757 30.1122 73.3169V72.3322C30.3731 72.4253 30.6498 72.486 30.9432 72.486H49.225C49.5184 72.486 49.7951 72.4261 50.056 72.3322V73.3169C50.056 73.7757 49.6837 74.1479 49.225 74.1479ZM51.718 69.993V66.6806H59.1903C59.6498 66.6806 60.0213 66.3092 60.0213 65.8496C60.0213 65.3901 59.6498 65.0186 59.1903 65.0186H51.718V62.5257H59.1903C59.6498 62.5257 60.0213 62.1542 60.0213 61.6947C60.0213 61.2351 59.6498 60.8637 59.1903 60.8637H51.718V58.3707H59.1903C59.6498 58.3707 60.0213 57.9992 60.0213 57.5397C60.0213 57.0802 59.6498 56.7087 59.1903 56.7087H51.718V54.2157H59.1903C59.6498 54.2157 60.0213 53.8443 60.0213 53.3847C60.0213 52.9252 59.6498 52.5537 59.1903 52.5537H51.718V50.0608H59.1903C59.6498 50.0608 60.0213 49.6893 60.0213 49.2298C60.0213 48.7702 59.6498 48.3988 59.1903 48.3988H51.718V48.3871V45.9058H59.1903C59.6498 45.9058 60.0213 45.5343 60.0213 45.0748C60.0213 44.6153 59.6498 44.2438 59.1903 44.2438H51.5684C51.2269 43.2724 50.3103 42.5702 49.225 42.5702H40.9151V24.3016H65.8407V29.2909C65.8407 29.7505 66.2122 30.1219 66.6717 30.1219H71.6569V70.8215H51.718V69.993Z" fill="#B16D03"/>
</svg>
