<svg width="100" height="100" viewBox="0 0 100 100" fill="none" xmlns="http://www.w3.org/2000/svg">
<rect width="100" height="100" fill="white"/>
<circle cx="50" cy="50" r="46" fill="#FFF9F0"/>
<circle cx="49.9997" cy="50" r="41.027" fill="#FFF5E6"/>
<path d="M66.189 40.392H67.9418V43.8976H66.189V40.392Z" fill="#B16D03"/>
<path d="M62.6836 40.392H64.4364V43.8976H62.6836V40.392Z" fill="#B16D03"/>
<path d="M59.1777 40.392H60.9305V43.8976H59.1777V40.392Z" fill="#B16D03"/>
<path d="M55.6724 40.392H57.4252V43.8976H55.6724V40.392Z" fill="#B16D03"/>
<path d="M66.189 57.0437H67.9418V58.7965H66.189V57.0437Z" fill="#B16D03"/>
<path d="M62.6836 57.0437H64.4364V58.7965H62.6836V57.0437Z" fill="#B16D03"/>
<path d="M59.1777 57.0437H60.9305V58.7965H59.1777V57.0437Z" fill="#B16D03"/>
<path d="M55.6724 57.0437H57.4252V58.7965H55.6724V57.0437Z" fill="#B16D03"/>
<path d="M26.7509 54.3486V59.673C26.7539 62.0921 28.7143 64.052 31.133 64.055H46.9768L62.5767 71.5413C63.5541 72.0094 64.6774 72.0693 65.6989 71.7073C66.7203 71.3457 67.5557 70.5921 68.02 69.613L70.7301 63.9164C72.6891 63.4405 74.0705 61.689 74.0769 59.673V56.8824L76.3073 52.1974C77.2757 50.1596 76.4177 47.7225 74.3863 46.7408L74.0769 46.5928V40.392C74.0739 37.9729 72.114 36.013 69.6949 36.01H52.0255L38.2529 29.4001C37.2759 28.9319 36.1522 28.872 35.1311 29.2341C34.1097 29.5957 33.2743 30.3493 32.8096 31.3284L30.5535 36.0686C28.3826 36.3549 26.7578 38.2023 26.7509 40.392V44.0581L24.5205 48.744C23.5525 50.7818 24.4106 53.2189 26.4415 54.2006L26.7509 54.3486ZM74.0769 48.61C74.9221 49.2913 75.1896 50.463 74.724 51.4434L74.0769 52.8029V48.61ZM66.4349 68.8551C66.1709 69.414 65.6954 69.8445 65.1134 70.0512C64.531 70.2583 63.8904 70.2245 63.3332 69.9575L51.0276 64.055H68.7222L66.4349 68.8551ZM72.3241 59.673C72.3241 61.1249 71.1469 62.3022 69.6949 62.3022H40.7734V52.1674C42.7227 54.0426 45.3237 55.0885 48.0286 55.0851V53.3323C45.7786 53.3348 43.6145 52.4666 41.9909 50.9089H72.3241V59.673ZM41.5904 48.6117L43.3149 44.2781C43.6564 43.4385 44.5213 42.9348 45.4199 43.0529C46.3186 43.1706 47.0243 43.8801 47.1372 44.7796C47.2502 45.6787 46.7418 46.541 45.9005 46.8773L41.5904 48.6117ZM69.6949 37.7628C71.1469 37.7628 72.3241 38.94 72.3241 40.392V49.1561H44.9381L46.5544 48.5073C48.1446 47.877 49.1066 46.2504 48.8935 44.5532C48.6804 42.856 47.3456 41.5179 45.6493 41.3001C43.9526 41.0823 42.3234 42.04 41.6884 43.6285L40.7734 45.9256V37.7628H69.6949ZM34.3934 32.0828C34.657 31.5239 35.1324 31.0934 35.7148 30.8863C36.2968 30.6796 36.9374 30.7134 37.495 30.9805L47.976 36.01H32.5237L34.3934 32.0828ZM28.5037 40.392C28.5037 38.94 29.681 37.7628 31.133 37.7628H39.0206V45.3141L38.3492 43.6285C37.7112 42.0481 36.0859 41.0981 34.3955 41.3176C32.7052 41.5367 31.376 42.8693 31.1621 44.5605C30.9477 46.2513 31.9024 47.8736 33.4845 48.5073L35.0995 49.1561H28.5037V40.392ZM38.4485 48.6117L34.1383 46.8773C33.2889 46.5448 32.7724 45.6791 32.8832 44.7736C32.994 43.8681 33.7044 43.153 34.6091 43.0353C35.5137 42.9177 36.3828 43.4273 36.7218 44.2746L38.4485 48.6117ZM28.5037 50.9089H38.0471C36.4231 52.4666 34.2594 53.3348 32.0094 53.3323V55.0851C34.6001 55.0877 37.0988 54.127 39.0206 52.39V62.3022H31.133C29.681 62.3022 28.5037 61.1249 28.5037 59.673V50.9089ZM26.1043 49.498L26.7509 48.1376V52.3313C25.9058 51.6501 25.6383 50.4784 26.1043 49.498Z" fill="#B16D03"/>
</svg>
