<svg width="100" height="100" viewBox="0 0 100 100" fill="none" xmlns="http://www.w3.org/2000/svg">
<rect width="100" height="100" fill="white"/>
<path d="M59.4655 79.4432C59.6969 77.678 60.3355 75.9906 61.3308 74.5145C61.3545 74.4718 61.3756 74.4276 61.3938 74.3823C82.7145 61.8721 83.9884 34.536 83.9989 34.2326C84.0218 33.6201 83.619 33.0727 83.0271 32.9127C80.5355 32.2263 78.165 31.1591 75.9993 29.7489C76.3133 28.3104 75.8008 26.8167 74.6698 25.8739C73.5387 24.9311 71.9771 24.6961 70.6187 25.2641C69.0811 23.6308 67.7147 21.8446 66.5409 19.9331C66.519 19.8978 66.4958 19.8636 66.4714 19.8301C65.5779 18.4115 64.8118 16.9166 64.182 15.3628C63.6806 12.0022 56.4692 10.4607 49.7328 10.4607C42.9965 10.4607 35.785 12.0022 35.2837 15.3628C34.6538 16.9166 33.8877 18.4115 32.9943 19.8301C32.9698 19.8636 32.9467 19.8978 32.9247 19.9331C31.7509 21.8446 30.3845 23.6308 28.8469 25.2641C27.4884 24.6917 25.924 24.925 24.7917 25.869C23.6593 26.8128 23.148 28.3096 23.4664 29.7491C21.3006 31.1592 18.93 32.2263 16.4385 32.9128C15.8468 33.0728 15.4439 33.6202 15.4667 34.2328C15.4774 34.5361 16.751 61.8706 38.0718 74.3823C38.0902 74.4277 38.1112 74.4719 38.1348 74.5147C39.1232 75.994 39.7587 77.6805 39.9927 79.4441C31.5926 80.2277 27.3272 81.8475 27.3272 84.2676C27.3272 89.2851 45.9913 89.5393 49.7328 89.5393C53.4744 89.5393 72.1385 89.2851 72.1385 84.2675C72.1385 81.8466 67.8706 80.2264 59.4655 79.4432ZM72.1385 27.5943C72.8661 27.5951 73.4558 28.1846 73.4564 28.9123C73.4564 29.6402 72.8664 30.2302 72.1385 30.2302C71.4106 30.2302 70.8206 29.6402 70.8206 28.9123C70.8206 28.1843 71.4106 27.5943 72.1385 27.5943ZM69.5025 33.5252C69.5025 34.617 68.6173 35.5022 67.5255 35.5022C66.4342 35.501 65.5498 34.6166 65.5486 33.5252C65.5486 32.4334 66.4337 31.5483 67.5255 31.5483C68.6173 31.5483 69.5025 32.4334 69.5025 33.5252ZM49.7328 13.0967C57.373 13.0967 61.3243 14.9867 61.5908 15.7327C61.3243 16.4785 57.373 18.3685 49.7328 18.3685C42.0231 18.3685 38.0706 16.4442 37.8684 15.7525C38.0706 15.0208 42.0231 13.0967 49.7328 13.0967ZM35.1271 21.3854L35.1811 21.305V21.3056C35.8908 20.1651 36.437 19.1467 36.847 18.3165C37.5771 18.8123 38.3699 19.2089 39.2047 19.4956C39.2964 19.5407 39.3933 19.5745 39.4932 19.5964C42.8139 20.5891 46.2677 21.064 49.733 21.0042C53.1987 21.0639 56.6528 20.5889 59.9737 19.596C60.0719 19.5742 60.1672 19.5408 60.2577 19.4966C61.0936 19.2098 61.8876 18.8129 62.6188 18.3163C63.0288 19.1464 63.5751 20.165 64.2847 21.3054V21.3048L64.3387 21.3853C65.5906 23.4123 67.0435 25.3082 68.6754 27.044C68.3579 27.6158 68.1892 28.2583 68.1847 28.9123C68.1847 28.9353 68.1912 28.9566 68.1915 28.9796C67.9716 28.9408 67.749 28.9183 67.5258 28.9123C65.1626 28.9198 63.1892 30.7158 62.9592 33.0677C62.5153 32.9403 62.0566 32.8727 61.5949 32.8662C59.0443 32.8714 56.8635 34.7023 56.4165 37.2135C54.0236 36.2839 51.3042 37.039 49.7331 39.0692C48.6194 37.6548 46.9206 36.8265 45.1202 36.8201C44.412 36.8252 43.7105 36.9585 43.0497 37.2135C42.6028 34.7023 40.4219 32.8716 37.8713 32.8662C37.4097 32.8725 36.9508 32.9403 36.5071 33.0677C36.2772 30.7158 34.3037 28.92 31.9404 28.9123C31.7171 28.9183 31.4947 28.9408 31.2748 28.9796C31.2751 28.9567 31.2815 28.9354 31.2815 28.9123C31.2771 28.2583 31.1083 27.6158 30.7909 27.044C32.4223 25.3083 33.8752 23.4126 35.1271 21.3854ZM64.2306 38.1382C64.2306 39.5941 63.0505 40.7742 61.5946 40.7742C60.1395 40.7725 58.9603 39.5934 58.9586 38.1382C58.9586 36.6824 60.1388 35.5022 61.5946 35.5022C63.0505 35.5022 64.2306 36.6824 64.2306 38.1382ZM57.6407 42.7512C57.6407 44.5709 56.1655 46.0461 54.3458 46.0461C52.5261 46.0461 51.0509 44.5709 51.0509 42.7512C51.0528 40.9322 52.5268 39.4581 54.3458 39.4563C56.1655 39.4561 57.6407 40.9314 57.6407 42.7512ZM48.4149 42.7512C48.4149 44.5709 46.9397 46.0461 45.12 46.0461C43.3003 46.0461 41.8251 44.5709 41.8251 42.7512C41.827 40.9322 43.301 39.4581 45.12 39.4563C46.9397 39.4561 48.4149 40.9314 48.4149 42.7512ZM40.507 38.1382C40.507 39.5941 39.3269 40.7742 37.871 40.7742C36.4152 40.7742 35.235 39.5941 35.235 38.1382C35.2367 36.6831 36.4159 35.5039 37.871 35.5022C39.3269 35.5022 40.507 36.6824 40.507 38.1382ZM31.9401 31.5483C33.0319 31.5483 33.9171 32.4334 33.9171 33.5252C33.9171 34.617 33.0319 35.5022 31.9401 35.5022C30.8483 35.5022 29.9632 34.617 29.9632 33.5252C29.9644 32.4339 30.8488 31.5495 31.9401 31.5483ZM27.3272 27.5943C28.0551 27.5943 28.6451 28.1843 28.6451 28.9123C28.6451 29.6402 28.0551 30.2302 27.3272 30.2302C26.5992 30.2302 26.0092 29.6402 26.0092 28.9123C26.01 28.1848 26.5997 27.5951 27.3272 27.5943ZM18.176 35.1496C20.5381 34.3982 22.7891 33.3336 24.8685 31.9843C25.5629 32.5511 26.4307 32.8625 27.3272 32.8663C27.3503 32.8663 27.3715 32.8599 27.3943 32.8595C27.3557 33.0795 27.3332 33.3021 27.3272 33.5254C27.3302 36.0718 29.3937 38.1353 31.9401 38.1384C32.1635 38.1323 32.3859 38.1098 32.6058 38.071C32.6055 38.094 32.599 38.1152 32.599 38.1384C32.6021 41.0487 34.9606 43.4071 37.8709 43.4102C38.3325 43.4039 38.7914 43.3361 39.2351 43.2087C39.4052 45.636 41.0515 47.7083 43.3775 48.4228C45.7035 49.1372 48.2292 48.3463 49.7325 46.433C51.2358 48.3463 53.7615 49.1371 56.0875 48.4228C58.4136 47.7083 60.06 45.636 60.2299 43.2087C60.6738 43.3361 61.1325 43.4037 61.5942 43.4102C64.5045 43.4071 66.8629 41.0487 66.866 38.1384C66.866 38.1152 66.8595 38.094 66.8592 38.071C67.0792 38.1098 67.3017 38.1323 67.5249 38.1384C70.0713 38.1353 72.1348 36.0718 72.1379 33.5254C72.1318 33.3021 72.1093 33.0795 72.0707 32.8595C72.0935 32.86 72.1147 32.8663 72.1379 32.8663C73.0343 32.8625 73.9023 32.5511 74.5967 31.9843C76.6764 33.3339 78.9277 34.3985 81.2905 35.1497C80.7924 40.6443 77.1717 66.8552 53.2654 75.2471C50.978 76.0416 48.4897 76.042 46.2019 75.2485C22.3282 66.8672 18.6806 40.6462 18.176 35.1496ZM49.7328 86.9033C38.2598 86.9033 31.6595 85.2861 30.1729 84.2738C31.0062 83.728 33.7384 82.697 40.0329 82.0874C39.9691 82.704 39.8529 83.3139 39.6858 83.9108C39.5565 84.3649 39.6799 84.8533 40.0092 85.1915C40.3385 85.5298 40.8237 85.666 41.281 85.5488C41.7383 85.4316 42.098 85.0788 42.2241 84.6239C42.983 81.9102 42.8914 79.0291 41.9613 76.3693C43.0456 76.858 44.1576 77.3238 45.3324 77.7361C48.1837 78.725 51.285 78.7245 54.1361 77.7348C55.3099 77.3228 56.421 76.8572 57.5046 76.3692C56.5744 79.0291 56.4826 81.9102 57.2417 84.6239C57.3678 85.0788 57.7275 85.4317 58.1848 85.5488C58.6421 85.666 59.1271 85.5298 59.4566 85.1915C59.7858 84.8533 59.9093 84.3649 59.78 83.9108C59.6126 83.3139 59.4956 82.7038 59.4305 82.0872C65.7266 82.6967 68.4593 83.7278 69.2927 84.2738C67.8062 85.2862 61.2059 86.9033 49.7328 86.9033Z" fill="url(#paint0_linear)"/>
<defs>
<linearGradient id="paint0_linear" x1="49.7328" y1="10.4607" x2="49.7328" y2="89.5393" gradientUnits="userSpaceOnUse">
<stop stop-color="#70EDA9"/>
<stop offset="1" stop-color="#71AC11"/>
</linearGradient>
</defs>
</svg>
