<svg width="100" height="100" viewBox="0 0 100 100" fill="none" xmlns="http://www.w3.org/2000/svg">
<rect width="100" height="100" fill="white"/>
<path d="M40.0968 47.72L45.1277 41.0116L39.0774 31.9355H24.7935L18.7432 41.0116L23.7742 47.72C15.7123 50.9664 10 58.8542 10 68.0645C10 80.16 19.84 90 31.9355 90C44.031 90 53.871 80.16 53.871 68.0645C53.871 58.8542 48.1587 50.9664 40.0968 47.72ZM37.5071 46.8735C37.089 46.7639 36.6761 46.6451 36.2503 46.56L37.9703 42.258H40.9677L37.5071 46.8735ZM37.6968 34.5161L41.1381 39.6774H37.8942L35.3136 34.5161H37.6968ZM31.4426 34.5161H32.4284L35.009 39.6774H28.8619L31.4426 34.5161ZM35.191 42.258L33.6077 46.2142C33.0542 46.1716 32.5006 46.129 31.9355 46.129C31.3703 46.129 30.8168 46.1716 30.2632 46.2142L28.68 42.258H35.191ZM26.1742 34.5161H28.5574L25.9768 39.6774H22.7329L26.1742 34.5161ZM22.9032 42.258H25.9006L27.6206 46.56C27.1948 46.6451 26.7806 46.7639 26.3639 46.8735L22.9032 42.258ZM31.9355 87.4193C21.2632 87.4193 12.5806 78.7368 12.5806 68.0645C12.5806 57.3922 21.2632 48.7097 31.9355 48.7097C42.6077 48.7097 51.2903 57.3922 51.2903 68.0645C51.2903 78.7368 42.6077 87.4193 31.9355 87.4193Z" fill="url(#paint0_linear)"/>
<path d="M31.9353 51.2903C22.6863 51.2903 15.1611 58.8155 15.1611 68.0645C15.1611 77.3136 22.6863 84.8387 31.9353 84.8387C41.1844 84.8387 48.7095 77.3136 48.7095 68.0645C48.7095 58.8155 41.1844 51.2903 31.9353 51.2903ZM31.9353 82.2581C24.1095 82.2581 17.7418 75.8903 17.7418 68.0645C17.7418 60.2387 24.1095 53.871 31.9353 53.871C39.7611 53.871 46.1289 60.2387 46.1289 68.0645C46.1289 75.8903 39.7611 82.2581 31.9353 82.2581Z" fill="url(#paint1_linear)"/>
<path d="M89.9996 47.4194C89.9996 45.4632 88.8925 43.7781 87.2848 42.9032C88.8925 42.0284 89.9996 40.3432 89.9996 38.3871C89.9996 35.7845 88.0564 33.6477 85.548 33.2981C86.6809 32.3497 87.419 30.9445 87.419 29.3548C87.419 26.7523 85.4758 24.6155 82.9674 24.2658C84.1003 23.3174 84.8383 21.9123 84.8383 20.3226C84.8383 17.4761 82.5235 15.1613 79.6771 15.1613C78.7016 15.1613 77.7983 15.449 77.019 15.9213C77.0564 15.671 77.0964 15.4219 77.0964 15.1613C77.0964 12.3148 74.7816 10 71.9351 10C69.0887 10 66.7738 12.3148 66.7738 15.1613C66.7738 15.4219 66.8138 15.671 66.8513 15.9213C66.0719 15.449 65.1687 15.1613 64.1932 15.1613C61.3467 15.1613 59.0319 17.4761 59.0319 20.3226C59.0319 21.9123 59.77 23.3174 60.9029 24.2658C58.3945 24.6155 56.4513 26.7523 56.4513 29.3548C56.4513 30.9445 57.1893 32.3497 58.3222 33.2981C55.8138 33.6477 53.8706 35.7845 53.8706 38.3871C53.8706 40.3432 54.9777 42.0284 56.5854 42.9032C54.9777 43.7781 53.8706 45.4632 53.8706 47.4194C53.8706 49.3755 54.9777 51.0606 56.5854 51.9355C54.9777 52.8103 53.8706 54.4955 53.8706 56.4516C53.8706 59.0542 55.8138 61.191 58.3222 61.5406C57.1893 62.489 56.4513 63.8942 56.4513 65.4839C56.4513 68.0864 58.3945 70.2232 60.9029 70.5729C59.77 71.5213 59.0319 72.9264 59.0319 74.5161C59.0319 77.3626 61.3467 79.6774 64.1932 79.6774C65.1687 79.6774 66.0719 79.3897 66.8513 78.9174C66.8138 79.1677 66.7738 79.4168 66.7738 79.6774C66.7738 82.5239 69.0887 84.8387 71.9351 84.8387C74.7816 84.8387 77.0964 82.5239 77.0964 79.6774C77.0964 79.4168 77.0564 79.1677 77.019 78.9174C77.7983 79.3897 78.7016 79.6774 79.6771 79.6774C82.5235 79.6774 84.8383 77.3626 84.8383 74.5161C84.8383 72.9264 84.1003 71.5213 82.9674 70.5729C85.4758 70.2232 87.419 68.0864 87.419 65.4839C87.419 63.8942 86.6809 62.489 85.548 61.5406C88.0564 61.191 89.9996 59.0542 89.9996 56.4516C89.9996 54.4955 88.8925 52.8103 87.2848 51.9355C88.8925 51.0606 89.9996 49.3755 89.9996 47.4194ZM87.419 38.3871C87.419 39.8103 86.2616 40.9677 84.8383 40.9677C83.4151 40.9677 82.2577 39.8103 82.2577 38.3871C82.2577 36.9639 83.4151 35.8065 84.8383 35.8065C86.2616 35.8065 87.419 36.9639 87.419 38.3871ZM84.8383 29.3548C84.8383 30.7781 83.6809 31.9355 82.2577 31.9355C80.8345 31.9355 79.6771 30.7781 79.6771 29.3548C79.6771 27.9316 80.8345 26.7742 82.2577 26.7742C83.6809 26.7742 84.8383 27.9316 84.8383 29.3548ZM79.6771 17.7419C81.1003 17.7419 82.2577 18.8994 82.2577 20.3226C82.2577 21.7458 81.1003 22.9032 79.6771 22.9032C78.2538 22.9032 77.0964 21.7458 77.0964 20.3226C77.0964 18.8994 78.2538 17.7419 79.6771 17.7419ZM71.9351 12.5806C73.3583 12.5806 74.5158 13.7381 74.5158 15.1613C74.5158 16.5845 73.3583 17.7419 71.9351 17.7419C70.5119 17.7419 69.3545 16.5845 69.3545 15.1613C69.3545 13.7381 70.5119 12.5806 71.9351 12.5806ZM64.1932 17.7419C65.6164 17.7419 66.7738 18.8994 66.7738 20.3226C66.7738 21.7458 65.6164 22.9032 64.1932 22.9032C62.77 22.9032 61.6125 21.7458 61.6125 20.3226C61.6125 18.8994 62.77 17.7419 64.1932 17.7419ZM61.6125 26.7742C63.0358 26.7742 64.1932 27.9316 64.1932 29.3548C64.1932 30.7781 63.0358 31.9355 61.6125 31.9355C60.1893 31.9355 59.0319 30.7781 59.0319 29.3548C59.0319 27.9316 60.1893 26.7742 61.6125 26.7742ZM56.4513 38.3871C56.4513 36.9639 57.6087 35.8065 59.0319 35.8065C60.4551 35.8065 61.6125 36.9639 61.6125 38.3871C61.6125 39.8103 60.4551 40.9677 59.0319 40.9677C57.6087 40.9677 56.4513 39.8103 56.4513 38.3871ZM56.4513 47.4194C56.4513 45.9961 57.6087 44.8387 59.0319 44.8387C60.4551 44.8387 61.6125 45.9961 61.6125 47.4194C61.6125 48.8426 60.4551 50 59.0319 50C57.6087 50 56.4513 48.8426 56.4513 47.4194ZM56.4513 56.4516C56.4513 55.0284 57.6087 53.871 59.0319 53.871C60.4551 53.871 61.6125 55.0284 61.6125 56.4516C61.6125 57.8748 60.4551 59.0323 59.0319 59.0323C57.6087 59.0323 56.4513 57.8748 56.4513 56.4516ZM59.0319 65.4839C59.0319 64.0606 60.1893 62.9032 61.6125 62.9032C63.0358 62.9032 64.1932 64.0606 64.1932 65.4839C64.1932 66.9071 63.0358 68.0645 61.6125 68.0645C60.1893 68.0645 59.0319 66.9071 59.0319 65.4839ZM64.1932 77.0968C62.77 77.0968 61.6125 75.9394 61.6125 74.5161C61.6125 73.0929 62.77 71.9355 64.1932 71.9355C65.6164 71.9355 66.7738 73.0929 66.7738 74.5161C66.7738 75.9394 65.6164 77.0968 64.1932 77.0968ZM71.9351 82.2581C70.5119 82.2581 69.3545 81.1006 69.3545 79.6774C69.3545 78.2542 70.5119 77.0968 71.9351 77.0968C73.3583 77.0968 74.5158 78.2542 74.5158 79.6774C74.5158 81.1006 73.3583 82.2581 71.9351 82.2581ZM74.5158 74.5161C74.5158 74.7768 74.5558 75.0258 74.5932 75.2761C73.8138 74.8039 72.9106 74.5161 71.9351 74.5161C70.9596 74.5161 70.0564 74.8039 69.2771 75.2761C69.3145 75.0258 69.3545 74.7768 69.3545 74.5161C69.3545 71.9135 67.4112 69.7768 64.9029 69.4271C66.0358 68.4787 66.7738 67.0735 66.7738 65.4839C66.7738 62.8813 64.8306 60.7445 62.3222 60.3948C63.4551 59.4464 64.1932 58.0413 64.1932 56.4516C64.1932 54.4955 63.0861 52.8103 61.4783 51.9355C63.0861 51.0606 64.1932 49.3755 64.1932 47.4194C64.1932 45.4632 63.0861 43.7781 61.4783 42.9032C63.0861 42.0284 64.1932 40.3432 64.1932 38.3871C64.1932 36.7974 63.4551 35.3923 62.3222 34.4439C64.8306 34.0942 66.7738 31.9574 66.7738 29.3548C66.7738 27.7652 66.0358 26.36 64.9029 25.4116C67.4112 25.0619 69.3545 22.9252 69.3545 20.3226C69.3545 20.0619 69.3145 19.8129 69.2771 19.5626C70.0564 20.0348 70.9596 20.3226 71.9351 20.3226C72.9106 20.3226 73.8138 20.0348 74.5932 19.5626C74.5558 19.8129 74.5158 20.0619 74.5158 20.3226C74.5158 22.9252 76.459 25.0619 78.9674 25.4116C77.8345 26.36 77.0964 27.7652 77.0964 29.3548C77.0964 31.9574 79.0396 34.0942 81.548 34.4439C80.4151 35.3923 79.6771 36.7974 79.6771 38.3871C79.6771 40.3432 80.7842 42.0284 82.3919 42.9032C80.7842 43.7781 79.6771 45.4632 79.6771 47.4194C79.6771 49.3755 80.7842 51.0606 82.3919 51.9355C80.7842 52.8103 79.6771 54.4955 79.6771 56.4516C79.6771 58.0413 80.4151 59.4464 81.548 60.3948C79.0396 60.7445 77.0964 62.8813 77.0964 65.4839C77.0964 67.0735 77.8345 68.4787 78.9674 69.4271C76.459 69.7768 74.5158 71.9135 74.5158 74.5161ZM79.6771 77.0968C78.2538 77.0968 77.0964 75.9394 77.0964 74.5161C77.0964 73.0929 78.2538 71.9355 79.6771 71.9355C81.1003 71.9355 82.2577 73.0929 82.2577 74.5161C82.2577 75.9394 81.1003 77.0968 79.6771 77.0968ZM82.2577 68.0645C80.8345 68.0645 79.6771 66.9071 79.6771 65.4839C79.6771 64.0606 80.8345 62.9032 82.2577 62.9032C83.6809 62.9032 84.8383 64.0606 84.8383 65.4839C84.8383 66.9071 83.6809 68.0645 82.2577 68.0645ZM87.419 56.4516C87.419 57.8748 86.2616 59.0323 84.8383 59.0323C83.4151 59.0323 82.2577 57.8748 82.2577 56.4516C82.2577 55.0284 83.4151 53.871 84.8383 53.871C86.2616 53.871 87.419 55.0284 87.419 56.4516ZM84.8383 50C83.4151 50 82.2577 48.8426 82.2577 47.4194C82.2577 45.9961 83.4151 44.8387 84.8383 44.8387C86.2616 44.8387 87.419 45.9961 87.419 47.4194C87.419 48.8426 86.2616 50 84.8383 50Z" fill="url(#paint2_linear)"/>
<defs>
<linearGradient id="paint0_linear" x1="31.9355" y1="31.9355" x2="31.9355" y2="90" gradientUnits="userSpaceOnUse">
<stop stop-color="#70EDA9"/>
<stop offset="1" stop-color="#71AC11"/>
</linearGradient>
<linearGradient id="paint1_linear" x1="31.9353" y1="51.2903" x2="31.9353" y2="84.8387" gradientUnits="userSpaceOnUse">
<stop stop-color="#70EDA9"/>
<stop offset="1" stop-color="#71AC11"/>
</linearGradient>
<linearGradient id="paint2_linear" x1="71.9351" y1="10" x2="71.9351" y2="84.8387" gradientUnits="userSpaceOnUse">
<stop stop-color="#70EDA9"/>
<stop offset="1" stop-color="#71AC11"/>
</linearGradient>
</defs>
</svg>
