<svg width="100" height="100" viewBox="0 0 100 100" fill="none" xmlns="http://www.w3.org/2000/svg">
<rect width="100" height="100" fill="white"/>
<circle cx="50" cy="50" r="46" fill="#FFF9F0"/>
<circle cx="49.9997" cy="50" r="41.027" fill="#FFF5E6"/>
<path d="M66.2523 72.4118H52.9105C49.8204 72.4118 47.3086 70.0772 47.3086 67.208C47.3086 64.572 49.429 62.3882 52.1689 62.0508C53.0442 58.7024 56.3212 56.262 60.0938 56.262C63.0659 56.262 65.8058 57.7783 67.2279 60.1649C70.44 60.5973 72.879 63.1723 72.879 66.2498C72.879 69.6484 69.905 72.4118 66.2523 72.4118V72.4118ZM60.0938 58.0565C57.0273 58.0565 54.3955 60.1918 53.9667 63.0252C53.8999 63.4684 53.4848 63.7986 52.9931 63.7986C50.9062 63.7986 49.2755 65.3292 49.2755 67.208C49.2755 69.0885 50.9062 70.6174 52.9105 70.6174H66.2523C68.8231 70.6174 70.912 68.6579 70.912 66.2498C70.912 63.9385 68.9884 62.0275 66.5336 61.9001C66.1678 61.8804 65.8452 61.6794 65.6937 61.3779C64.6866 59.361 62.4876 58.0565 60.0938 58.0565V58.0565Z" fill="#B16D03"/>
<path d="M43.5652 68.3743H31.9576C29.2898 68.3743 27.1211 66.2191 27.1211 63.5679V32.8065C27.1211 30.1552 29.2898 28 31.9576 28H53.2382C55.9061 28 58.0748 30.1552 58.0748 32.8065V50.1098C58.0748 50.6404 57.6414 51.071 57.1074 51.071C56.5735 51.071 56.1401 50.6404 56.1401 50.1098V32.8065C56.1401 31.2165 54.8382 29.9226 53.2382 29.9226H31.9576C30.3577 29.9226 29.0557 31.2165 29.0557 32.8065V63.5679C29.0557 65.1578 30.3577 66.4517 31.9576 66.4517H43.5652C44.0992 66.4517 44.5325 66.8824 44.5325 67.413C44.5325 67.9437 44.0992 68.3743 43.5652 68.3743Z" fill="#B16D03"/>
<path d="M51.5136 57.6078C50.8636 57.6078 50.336 57.1858 50.336 56.6658V40.6506H45.6257V56.6658C45.6257 57.1858 45.0981 57.6078 44.4481 57.6078C43.7981 57.6078 43.2705 57.1858 43.2705 56.6658V39.7086C43.2705 39.1885 43.7981 38.7665 44.4481 38.7665H51.5136C52.1636 38.7665 52.6912 39.1885 52.6912 39.7086V56.6658C52.6912 57.1858 52.1636 57.6078 51.5136 57.6078Z" fill="#B16D03"/>
<path d="M38.5609 57.6078H34.5235C34.152 57.6078 33.8506 57.1054 33.8506 56.4863V45.2712C33.8506 44.6522 34.152 44.1497 34.5235 44.1497H38.5609C38.9324 44.1497 39.2338 44.6522 39.2338 45.2712V56.4863C39.2338 57.1054 38.9324 57.6078 38.5609 57.6078ZM35.1964 55.3648H37.888V46.3928H35.1964V55.3648Z" fill="#B16D03"/>
<path d="M51.7129 57.6079H32.1375C31.5972 57.6079 31.1587 57.3064 31.1587 56.9349C31.1587 56.5635 31.5972 56.262 32.1375 56.262H51.7129C52.2532 56.262 52.6917 56.5635 52.6917 56.9349C52.6917 57.3064 52.2532 57.6079 51.7129 57.6079Z" fill="#B16D03"/>
</svg>
