<svg width="100" height="100" viewBox="0 0 100 100" fill="none" xmlns="http://www.w3.org/2000/svg">
<rect width="100" height="100" fill="white"/>
<circle cx="50" cy="50" r="46" fill="#FFF9F0"/>
<circle cx="49.9997" cy="50" r="41.027" fill="#FFF5E6"/>
<path d="M72.3984 51.6886C69.963 49.264 67.1474 51.5333 67.1474 51.5333V38.7697C67.1474 38.341 66.8001 37.9933 66.3714 37.9933C65.9424 37.9933 65.5951 38.341 65.5951 38.7697V52.6255C65.5951 52.6255 61.8932 55.5437 60.302 56.257V33.2756C60.302 32.2073 61.171 31.3383 62.2393 31.3383H63.6578C64.7261 31.3383 65.5951 32.2073 65.5951 33.2756V35.5914C65.5951 36.0204 65.9424 36.3678 66.3714 36.3678C66.8001 36.3678 67.1474 36.0204 67.1474 35.5914V33.2756C67.1474 31.3513 65.5821 29.786 63.6578 29.786H62.2393C60.3149 29.786 58.7493 31.3513 58.7493 33.2756V56.8725C58.2863 57.0023 57.8111 57.0904 57.3283 57.1369V40.7696C57.3283 38.8356 55.755 37.2622 53.8213 37.2622H52.4372C50.5035 37.2622 48.9302 38.8356 48.9302 40.7696V48.6797L47.5088 49.4343V46.8019C47.5088 45.0607 46.0924 43.6442 44.3516 43.6442H42.2683C40.5272 43.6442 39.1111 45.0607 39.1111 46.8019V53.8919L36.5762 55.2372L29.4578 57.2716C28.2192 57.6254 27.1849 58.4365 26.546 59.555C25.9067 60.6739 25.7332 61.9767 26.0575 63.2234L26.8537 66.2868C26.9613 66.7017 27.385 66.9503 27.8003 66.8428C28.2152 66.7348 28.4643 66.3111 28.3563 65.8958L27.5601 62.8327C27.0984 61.056 28.1194 59.2687 29.8848 58.7645L36.393 56.9044L41.2845 69.9596C41.6121 70.8338 41.5603 73.3279 38.9728 74.247L34.0546 75.3643C32.3405 75.7533 30.6515 74.7258 30.2091 73.0242L29.2107 69.1824C29.1028 68.7675 28.679 68.5185 28.2641 68.626C27.8488 68.734 27.6002 69.1577 27.7077 69.573L28.7065 73.4153C29.2677 75.5737 31.1852 76.9999 33.3198 76.9999C34.8884 76.9999 39.3169 75.761 39.3169 75.761C40.6646 75.4553 41.8138 74.5818 42.4693 73.3655C43.0103 72.3619 43.1709 71.207 42.9388 70.1068L59.9542 65.9411C61.3614 65.5961 62.6974 64.9277 63.8167 64.0078L72.0972 57.204C74.6216 54.9651 73.1408 52.4273 72.3984 51.6886ZM52.4372 38.815H53.8213C54.8989 38.815 55.7756 39.692 55.7756 40.7696V57.1757L50.8768 57.1737C50.4267 57.1697 50.7381 56.8725 50.7627 56.8523L52.1735 55.7095C53.4897 54.6432 54.3494 53.1608 54.7283 51.3028C54.9689 50.1241 54.5192 48.9442 53.5557 48.2236C52.6555 47.5508 51.4979 47.4214 50.4829 47.8662V40.7696C50.4829 39.692 51.3596 38.815 52.4372 38.815ZM40.6638 46.8019C40.6638 45.9171 41.3836 45.197 42.2683 45.197H44.3516C45.2363 45.197 45.9565 45.9171 45.9565 46.8019V50.2583L40.6634 53.0678V46.8019H40.6638ZM71.1118 56.0047L62.8309 62.8085C61.8903 63.5816 60.7678 64.1433 59.5851 64.4328L42.4442 68.6297L37.8345 56.3278L50.9965 49.3413C51.5314 49.057 52.1408 49.1043 52.6256 49.467C53.1104 49.8297 53.328 50.3999 53.2071 50.9927C52.9018 52.4884 52.2253 53.6695 51.1962 54.5029L49.7854 55.646C49.2072 56.1143 48.9941 56.87 49.2423 57.5716C49.4906 58.2728 50.1319 58.7265 50.876 58.7265L56.5326 58.7289H56.5366C58.5503 58.7289 60.4856 58.1167 62.1329 56.9582L68.4547 52.5127C69.3399 51.8899 70.5315 51.9999 71.2877 52.7739C71.7232 53.2187 72.5755 54.5405 71.1118 56.0047V56.0047Z" fill="#B16D03"/>
<path d="M38.3115 70.457C38.3115 68.7704 36.9395 67.398 35.2529 67.398C33.5663 67.398 32.1943 68.7704 32.1943 70.457C32.1943 72.1431 33.5663 73.5155 35.2529 73.5155C36.9395 73.5155 38.3115 72.1431 38.3115 70.457V70.457ZM33.7471 70.457C33.7471 69.6264 34.4224 68.9507 35.2529 68.9507C36.0831 68.9507 36.7588 69.6264 36.7588 70.457C36.7588 71.2871 36.0835 71.9628 35.2529 71.9628C34.4224 71.9628 33.7471 71.2871 33.7471 70.457V70.457Z" fill="#B16D03"/>
<path d="M29.67 48.3761L40.9557 37.0034L43.4943 38.3164C44.4037 38.7867 45.5104 38.6257 46.248 37.9157L52.391 32.0023C52.391 32.0023 52.222 35.0394 54.7796 35.0394C56.0962 35.0394 57.1677 33.9679 57.1677 32.6509V26.3882C57.1677 26.3809 57.1673 26.3732 57.1673 26.3655C57.1589 24.7315 55.964 24 54.7796 24H48.5714C47.2544 24 46.1833 25.0716 46.1833 26.3882C46.1833 29.0133 48.8549 28.7763 48.8549 28.7763L44.1684 33.2874L41.593 31.9554C40.6618 31.4734 39.5397 31.6501 38.8005 32.3941L26.2799 45.0114C25.3523 45.9463 25.3579 47.4614 26.2928 48.389C26.7433 48.8358 28.2815 49.7646 29.67 48.3761ZM27.3818 46.1052L39.9024 33.4879C40.0641 33.3254 40.3237 33.0407 40.8797 33.3347L43.9492 34.9222C44.2448 35.075 44.6047 35.0229 44.8445 34.792L51.3191 28.5596C51.5471 28.34 51.6191 28.0036 51.5006 27.71C51.3822 27.416 51.0975 27.224 50.7805 27.224H48.5714C48.1109 27.224 47.736 26.8491 47.736 26.3882C47.736 25.9276 48.1109 25.5527 48.5714 25.5527H54.7796C55.0081 25.5527 55.6146 25.5527 55.6146 26.3833C55.6146 26.3902 55.615 26.3971 55.615 26.4043V32.6509C55.615 33.1115 55.2402 33.4863 54.7796 33.4863C54.3186 33.4863 53.9438 33.1115 53.9438 32.6509V30.1774C53.9438 29.8661 53.7578 29.5846 53.4715 29.4629C53.1852 29.3408 52.8536 29.4023 52.6292 29.6182L45.1712 36.7972C44.9132 37.0455 44.5258 37.1021 44.208 36.9375L41.1632 35.3625C40.8619 35.2068 40.4944 35.2647 40.2554 35.5053L28.5681 47.2823C28.0587 47.7918 27.5439 47.4432 27.3862 47.2867C27.0595 46.962 27.0575 46.4319 27.3818 46.1052V46.1052Z" fill="#B16D03"/>
</svg>
