<svg width="100" height="100" viewBox="0 0 100 100" fill="none" xmlns="http://www.w3.org/2000/svg">
<rect width="100" height="100" fill="white"/>
<path d="M78.801 17.1007C78.0561 17.1007 77.4522 16.4968 77.4522 15.7518C77.4522 15.0069 78.0561 14.403 78.801 14.403C80.2471 14.4021 81.5839 15.173 82.3073 16.4251C83.0308 17.6773 83.031 19.2204 82.308 20.4727C81.9244 21.0928 81.1175 21.2958 80.4862 20.9311C79.8549 20.5663 79.6276 19.766 79.9731 19.1239C80.2145 18.706 80.2141 18.1909 79.9721 17.7733C79.7302 17.3558 79.2836 17.0992 78.801 17.1007Z" fill="url(#paint0_linear)"/>
<path d="M73.4055 29.2402C74.8516 29.2392 76.1883 30.0101 76.9118 31.2623C77.6353 32.5144 77.6355 34.0575 76.9125 35.3099C76.5289 35.9299 75.722 36.1329 75.0907 35.7682C74.4594 35.4035 74.2321 34.6031 74.5776 33.9611C74.8189 33.5431 74.8186 33.0281 74.5766 32.6105C74.3347 32.1929 73.8881 31.9364 73.4055 31.9378C72.6606 31.9378 72.0567 31.3339 72.0567 30.589C72.0567 29.8441 72.6606 29.2402 73.4055 29.2402V29.2402Z" fill="url(#paint1_linear)"/>
<path d="M65.3127 42.7284C66.7589 42.7275 68.0956 43.4984 68.819 44.7506C69.5425 46.0027 69.5428 47.5458 68.8197 48.7982C68.4361 49.4182 67.6292 49.6212 66.9979 49.2565C66.3666 48.8918 66.1394 48.0914 66.4849 47.4494C66.7262 47.0314 66.7258 46.5164 66.4839 46.0988C66.2419 45.6812 65.7953 45.4247 65.3127 45.4261C64.5678 45.4261 63.9639 44.8222 63.9639 44.0773C63.9639 43.3323 64.5678 42.7284 65.3127 42.7284Z" fill="url(#paint2_linear)"/>
<path d="M50.4758 48.1238C51.9219 48.1229 53.2587 48.8938 53.9821 50.1459C54.7056 51.3981 54.7058 52.9411 53.9828 54.1935C53.5992 54.8136 52.7923 55.0166 52.161 54.6518C51.5297 54.2871 51.3024 53.4867 51.6479 52.8447C51.8892 52.4268 51.8889 51.9117 51.6469 51.4941C51.405 51.0765 50.9584 50.82 50.4758 50.8215C49.7309 50.8215 49.127 50.2176 49.127 49.4726C49.127 48.7277 49.7309 48.1238 50.4758 48.1238Z" fill="url(#paint3_linear)"/>
<path d="M27.1313 42.7069C23.6395 42.5522 20.5197 40.4788 19.0249 37.3195C17.53 34.1601 17.9053 30.433 20 27.635C15.9339 26.6817 12.9772 23.1704 12.73 19.0014C12.4828 14.8323 15.0039 10.9962 18.9288 9.56906C22.8538 8.14192 27.25 9.46285 29.7383 12.817C32.2266 16.1711 32.2157 20.7615 29.7116 24.1038C32.4893 24.7599 34.8212 26.6373 36.0551 29.2109C37.289 31.7845 37.2925 34.7782 36.0646 37.3547C40.2843 37.5442 43.8648 40.5132 44.832 44.6249C48.1752 42.0953 52.7921 42.0953 56.1352 44.6249C57.1025 40.5132 60.683 37.5442 64.9026 37.3547C63.6748 34.7782 63.6783 31.7845 64.9122 29.2109C66.1461 26.6373 68.4779 24.7599 71.2556 24.1038C68.7515 20.7615 68.7407 16.1711 71.229 12.817C73.7173 9.46285 78.1135 8.14192 82.0384 9.56906C85.9634 10.9962 88.4844 14.8323 88.2372 19.0014C87.99 23.1704 85.0333 26.6817 80.9672 27.635C83.062 30.433 83.4373 34.1601 81.9424 37.3195C80.4475 40.4788 77.3277 42.5522 73.836 42.7069C75.7163 46.6248 74.676 51.3204 71.3168 54.0775C67.9576 56.8346 63.1493 56.9393 59.6732 54.3311C58.7765 58.1061 55.6646 60.9501 51.8244 61.5042V64.4716C57.2952 65.6505 61.2662 73.7516 61.2662 79.1469C61.2662 85.1065 56.4351 89.9376 50.4755 89.9376C44.516 89.9376 39.6849 85.1065 39.6849 79.1469C39.6849 73.7516 43.6558 65.6505 49.1267 64.4703V61.5029C45.2918 60.9429 42.1869 58.0994 41.2927 54.3284C37.8166 56.9366 33.0083 56.8319 29.6491 54.0748C26.29 51.3177 25.2496 46.6221 27.13 42.7042L27.1313 42.7069ZM85.5452 18.4495C85.5532 15.2396 83.2976 12.4688 80.1528 11.8254C77.008 11.182 73.8455 12.8443 72.5922 15.7994C71.3389 18.7546 72.3421 22.1836 74.9906 23.9972C76.1082 24.1796 77.1822 24.5684 78.1576 25.1437C80.0477 25.3316 81.9291 24.7112 83.3367 23.4357C84.7442 22.1603 85.5465 20.3489 85.5452 18.4495V18.4495ZM80.1498 33.2866C80.1544 30.2598 78.1392 27.6018 75.2235 26.789C72.3078 25.9763 69.2081 27.2086 67.6463 29.8013C66.0844 32.394 66.4441 35.7102 68.5256 37.9077C69.6741 38.3259 70.7304 38.9631 71.636 39.784C73.662 40.3389 75.831 39.9167 77.5009 38.6423C79.1708 37.3679 80.1504 35.3873 80.1498 33.2866V33.2866ZM58.6171 47.4116C59.1945 48.395 59.5872 49.4756 59.7757 50.6003C61.7 53.3962 65.4023 54.3265 68.4196 52.7722C71.437 51.218 72.8291 47.6635 71.67 44.4735C70.5108 41.2834 67.1615 39.4518 63.8503 40.1972C60.539 40.9425 58.2976 44.0326 58.6171 47.4116ZM42.3825 79.1469C42.3825 83.6166 46.0059 87.2399 50.4755 87.2399C54.9452 87.2399 58.5685 83.6166 58.5685 79.1469C58.5685 74.5731 54.7851 67.0075 50.4755 67.0075C46.166 67.0075 42.3825 74.5731 42.3825 79.1469ZM50.4755 58.9145C54.2002 58.9145 57.2197 55.895 57.2197 52.1703C57.2197 48.4456 54.2002 45.4261 50.4755 45.4261C46.7508 45.4261 43.7314 48.4456 43.7314 52.1703C43.7358 55.8931 46.7527 58.91 50.4755 58.9145ZM22.1501 11.7053C19.6665 11.7045 17.3841 13.0705 16.2113 15.2597C15.0385 17.4489 15.1657 20.1059 16.5423 22.173C17.9189 24.2401 20.3214 25.3819 22.7935 25.1437C23.7687 24.568 24.8427 24.1792 25.9605 23.9972C28.3843 22.3218 29.4399 19.2669 28.5675 16.4525C27.695 13.6382 25.0965 11.716 22.1501 11.7053V11.7053ZM41.1686 50.6003C41.3572 49.4756 41.7498 48.395 42.3272 47.4116C42.645 44.0377 40.4063 40.9531 37.1 40.2095C33.7937 39.4659 30.4498 41.2949 29.2924 44.48C28.135 47.6652 29.5247 51.2142 32.5371 52.7666C35.5495 54.319 39.2463 53.3912 41.1686 50.6003ZM29.3083 39.784C30.2139 38.9631 31.2703 38.3259 32.4187 37.9077C33.6176 36.668 34.2884 35.0113 34.2896 33.2866C34.2945 30.8246 32.9556 28.5561 30.7978 27.3706C28.64 26.1851 26.0073 26.2715 23.9319 27.5959C17.4683 31.7598 21.8655 41.8194 29.3151 39.784H29.3083Z" fill="url(#paint4_linear)"/>
<path d="M55.8706 79.1469C55.8706 79.8919 55.2667 80.4958 54.5218 80.4958C53.7768 80.4958 53.1729 79.8919 53.1729 79.1469C53.1729 76.3994 50.8894 72.7386 50.0544 72.3488C49.3559 72.1097 48.9794 71.3533 49.2098 70.6518C49.4402 69.9503 50.1918 69.5644 50.8961 69.786C53.1284 70.5144 55.8706 75.6804 55.8706 79.1469Z" fill="url(#paint5_linear)"/>
<path d="M81.4986 71.2603V69.5068C79.6161 69.0252 78.1402 67.5648 77.6388 65.6874C77.1373 63.8101 77.6885 61.8083 79.0801 60.4521C76.62 58.7953 75.5311 55.7255 76.3973 52.8888C77.2634 50.052 79.8814 48.1141 82.8474 48.1141C85.8135 48.1141 88.4314 50.052 89.2976 52.8888C90.1638 55.7255 89.0749 58.7953 86.6147 60.4521C88.0101 61.8079 88.5636 63.8121 88.0619 65.6918C87.5602 67.5716 86.0816 69.0333 84.1963 69.5136V71.2671C88.1241 72.3758 90.9404 78.084 90.9404 81.9309C90.9404 86.4006 87.3171 90.0239 82.8474 90.0239C78.3778 90.0239 74.7544 86.4006 74.7544 81.9309C74.7544 78.0773 77.5708 72.369 81.4986 71.2603ZM86.8939 54.8679C86.8939 52.6331 85.0823 50.8214 82.8474 50.8214C80.6126 50.8214 78.8009 52.6331 78.8009 54.8679C78.8009 57.1028 80.6126 58.9144 82.8474 58.9144C83.9206 58.9144 84.9499 58.4881 85.7087 57.7292C86.4676 56.9704 86.8939 55.9411 86.8939 54.8679ZM85.5451 64.3098C85.5451 62.8199 84.3373 61.6121 82.8474 61.6121C81.3576 61.6121 80.1498 62.8199 80.1498 64.3098C80.1498 65.7997 81.3576 67.0074 82.8474 67.0074C83.5629 67.0074 84.2491 66.7232 84.755 66.2173C85.2609 65.7114 85.5451 65.0252 85.5451 64.3098V64.3098ZM82.8474 87.2399C85.8039 87.2586 88.2175 84.8806 88.2428 81.9242C88.2428 78.8502 85.6287 73.7516 82.8474 73.7516C80.0661 73.7516 77.4521 78.8502 77.4521 81.9242C77.4773 84.8806 79.891 87.2586 82.8474 87.2399Z" fill="url(#paint6_linear)"/>
<path d="M83.4434 76.5841C84.7464 77.2316 85.5449 80.3608 85.5449 81.8446C85.5449 82.5895 84.941 83.1934 84.1961 83.1934C83.4511 83.1934 82.8473 82.5895 82.8473 81.8446C82.8005 80.8038 82.5202 79.7868 82.0272 78.869C81.464 78.4511 81.3151 77.6713 81.6845 77.0753C82.054 76.4792 82.8186 76.2657 83.4434 76.5841Z" fill="url(#paint7_linear)"/>
<path d="M24.4836 21.1472C24.0022 21.1462 23.5578 20.8887 23.3175 20.4716C23.0773 20.0544 23.0775 19.5408 23.3182 19.1239C23.5592 18.7066 23.5592 18.1924 23.3182 17.7751C23.0773 17.3578 22.632 17.1007 22.1501 17.1007C21.4052 17.1007 20.8013 16.4968 20.8013 15.7518C20.8013 15.0069 21.4052 14.403 22.1501 14.403C23.5963 14.4021 24.933 15.173 25.6564 16.4251C26.3799 17.6773 26.3802 19.2204 25.6571 20.4727C25.4152 20.8917 24.9674 21.1491 24.4836 21.1472V21.1472Z" fill="url(#paint8_linear)"/>
<path d="M27.5451 29.2402C28.9913 29.2392 30.328 30.0101 31.0515 31.2623C31.7749 32.5144 31.7752 34.0575 31.0521 35.3099C30.6685 35.9299 29.8616 36.1329 29.2303 35.7682C28.599 35.4035 28.3718 34.6031 28.7173 33.9611C28.9586 33.5431 28.9582 33.0281 28.7163 32.6105C28.4744 32.1929 28.0278 31.9364 27.5451 31.9378C26.8002 31.9378 26.1963 31.3339 26.1963 30.589C26.1963 29.8441 26.8002 29.2402 27.5451 29.2402Z" fill="url(#paint9_linear)"/>
<path d="M35.6384 42.7284C37.0845 42.7275 38.4213 43.4984 39.1447 44.7506C39.8682 46.0027 39.8684 47.5458 39.1454 48.7982C38.7618 49.4182 37.9549 49.6212 37.3236 49.2565C36.6923 48.8918 36.465 48.0914 36.8105 47.4494C37.0519 47.0314 37.0515 46.5164 36.8095 46.0988C36.5676 45.6812 36.121 45.4247 35.6384 45.4261C34.8935 45.4261 34.2896 44.8222 34.2896 44.0773C34.2896 43.3323 34.8935 42.7284 35.6384 42.7284Z" fill="url(#paint10_linear)"/>
<path d="M16.7545 71.2603V69.5068C14.8719 69.0252 13.396 67.5648 12.8946 65.6874C12.3932 63.8101 12.9443 61.8083 14.336 60.4521C11.8758 58.7953 10.7869 55.7255 11.6531 52.8888C12.5193 50.052 15.1372 48.1141 18.1033 48.1141C21.0694 48.1141 23.6873 50.052 24.5535 52.8888C25.4197 55.7255 24.3308 58.7953 21.8706 60.4521C23.2659 61.8079 23.8194 63.8121 23.3177 65.6918C22.816 67.5716 21.3375 69.0333 19.4521 69.5136V71.2671C23.3799 72.3758 26.1963 78.084 26.1963 81.9309C26.1963 86.4006 22.5729 90.0239 18.1033 90.0239C13.6337 90.0239 10.0103 86.4006 10.0103 81.9309C10.0103 78.0773 12.8267 72.369 16.7545 71.2603V71.2603ZM22.1498 54.8679C22.1498 52.6331 20.3381 50.8214 18.1033 50.8214C15.8685 50.8214 14.0568 52.6331 14.0568 54.8679C14.0568 57.1028 15.8685 58.9144 18.1033 58.9144C20.3381 58.9144 22.1498 57.1028 22.1498 54.8679ZM20.801 64.3098C20.801 62.8199 19.5932 61.6121 18.1033 61.6121C16.6134 61.6121 15.4056 62.8199 15.4056 64.3098C15.4056 65.7997 16.6134 67.0074 18.1033 67.0074C19.5932 67.0074 20.801 65.7997 20.801 64.3098ZM18.1033 87.2399C21.0597 87.2586 23.4734 84.8806 23.4986 81.9242C23.4986 78.8502 20.8846 73.7516 18.1033 73.7516C15.322 73.7516 12.708 78.8502 12.708 81.9242C12.7332 84.8806 15.1468 87.2586 18.1033 87.2399Z" fill="url(#paint11_linear)"/>
<path d="M18.6998 76.5841C20.0028 77.2315 20.8013 80.3608 20.8013 81.8445C20.8013 82.5895 20.1974 83.1934 19.4524 83.1934C18.7075 83.1934 18.1036 82.5895 18.1036 81.8445C18.0568 80.8037 17.7766 79.7868 17.2835 78.869C16.7324 78.4472 16.5914 77.676 16.9575 77.0864C17.3236 76.4968 18.0773 76.2813 18.6998 76.5881V76.5841Z" fill="url(#paint12_linear)"/>
<defs>
<linearGradient id="paint0_linear" x1="80.1511" y1="14.403" x2="80.1511" y2="21.1121" gradientUnits="userSpaceOnUse">
<stop stop-color="#70EDA9"/>
<stop offset="1" stop-color="#71AC11"/>
</linearGradient>
<linearGradient id="paint1_linear" x1="74.7556" y1="29.2402" x2="74.7556" y2="35.9493" gradientUnits="userSpaceOnUse">
<stop stop-color="#70EDA9"/>
<stop offset="1" stop-color="#71AC11"/>
</linearGradient>
<linearGradient id="paint2_linear" x1="66.6629" y1="42.7284" x2="66.6629" y2="49.4376" gradientUnits="userSpaceOnUse">
<stop stop-color="#70EDA9"/>
<stop offset="1" stop-color="#71AC11"/>
</linearGradient>
<linearGradient id="paint3_linear" x1="51.8259" y1="48.1238" x2="51.8259" y2="54.8329" gradientUnits="userSpaceOnUse">
<stop stop-color="#70EDA9"/>
<stop offset="1" stop-color="#71AC11"/>
</linearGradient>
<linearGradient id="paint4_linear" x1="50.4836" y1="9" x2="50.4836" y2="89.9376" gradientUnits="userSpaceOnUse">
<stop stop-color="#70EDA9"/>
<stop offset="1" stop-color="#71AC11"/>
</linearGradient>
<linearGradient id="paint5_linear" x1="52.5064" y1="69.7235" x2="52.5064" y2="80.4958" gradientUnits="userSpaceOnUse">
<stop stop-color="#70EDA9"/>
<stop offset="1" stop-color="#71AC11"/>
</linearGradient>
<linearGradient id="paint6_linear" x1="82.8474" y1="48.1141" x2="82.8474" y2="90.0239" gradientUnits="userSpaceOnUse">
<stop stop-color="#70EDA9"/>
<stop offset="1" stop-color="#71AC11"/>
</linearGradient>
<linearGradient id="paint7_linear" x1="83.5135" y1="76.4369" x2="83.5135" y2="83.1934" gradientUnits="userSpaceOnUse">
<stop stop-color="#70EDA9"/>
<stop offset="1" stop-color="#71AC11"/>
</linearGradient>
<linearGradient id="paint8_linear" x1="23.5003" y1="14.403" x2="23.5003" y2="21.1472" gradientUnits="userSpaceOnUse">
<stop stop-color="#70EDA9"/>
<stop offset="1" stop-color="#71AC11"/>
</linearGradient>
<linearGradient id="paint9_linear" x1="28.8953" y1="29.2402" x2="28.8953" y2="35.9493" gradientUnits="userSpaceOnUse">
<stop stop-color="#70EDA9"/>
<stop offset="1" stop-color="#71AC11"/>
</linearGradient>
<linearGradient id="paint10_linear" x1="36.9885" y1="42.7284" x2="36.9885" y2="49.4376" gradientUnits="userSpaceOnUse">
<stop stop-color="#70EDA9"/>
<stop offset="1" stop-color="#71AC11"/>
</linearGradient>
<linearGradient id="paint11_linear" x1="18.1033" y1="48.1141" x2="18.1033" y2="90.0239" gradientUnits="userSpaceOnUse">
<stop stop-color="#70EDA9"/>
<stop offset="1" stop-color="#71AC11"/>
</linearGradient>
<linearGradient id="paint12_linear" x1="18.7779" y1="76.4489" x2="18.7779" y2="83.1934" gradientUnits="userSpaceOnUse">
<stop stop-color="#70EDA9"/>
<stop offset="1" stop-color="#71AC11"/>
</linearGradient>
</defs>
</svg>
