<svg width="100" height="100" viewBox="0 0 100 100" fill="none" xmlns="http://www.w3.org/2000/svg">
<rect width="100" height="100" fill="white"/>
<circle cx="50" cy="50" r="46" fill="#FFF9F0"/>
<circle cx="49.9997" cy="50" r="41.027" fill="#FFF5E6"/>
<path d="M68.3492 46.4593H66.796L53.1387 33.4692C53.3826 32.956 53.5093 32.3932 53.5084 31.8232C53.5072 29.7104 51.8211 27.9987 49.7428 28C47.6645 28.0013 45.9808 29.7154 45.9821 31.8282C45.9812 32.3965 46.1079 32.9573 46.3518 33.4683L32.6945 46.4593H31.1413C28.3354 46.4593 26 48.807 26 51.659V66.8541C26 69.7066 28.3354 72 31.1413 72H68.3492C69.69 72.0025 70.9762 71.4603 71.9219 70.4938C72.8673 69.5277 73.394 68.2172 73.3845 66.8541V51.659C73.3845 48.807 71.1551 46.4593 68.3492 46.4593ZM49.7452 29.7285C50.8869 29.7285 51.8124 30.6693 51.8124 31.8299C51.8124 32.9905 50.8869 33.9314 49.7452 33.9314C48.6036 33.9314 47.6781 32.9905 47.6781 31.8299C47.6794 30.6698 48.604 29.7297 49.7452 29.7285ZM47.4164 34.8184C48.7775 35.9272 50.7142 35.9259 52.0741 34.815L64.3148 46.4593H35.1757L47.4164 34.8184ZM71.6884 66.8272C71.6884 68.7316 70.1695 70.2757 68.2962 70.2757H31.0883C29.215 70.2757 27.6961 68.7316 27.6961 66.8272V51.6321C27.6961 49.7276 29.215 48.1835 31.0883 48.1835H68.2962C70.1695 48.1835 71.6884 49.7276 71.6884 51.6321V66.8272Z" fill="#B16D03"/>
<path d="M50.2738 47.6849C49.9469 47.3875 49.4617 47.387 49.1348 47.684L39.8389 56.1264C39.5651 56.3646 39.4666 56.7591 39.5931 57.1077C39.723 57.4585 40.0499 57.6855 40.4082 57.674H41.6495V67.5206C41.6452 68.0241 42.0256 68.4395 42.5062 68.4551L56.7016 68.6154H56.7096C57.2072 68.598 57.6071 68.18 57.6253 67.6582V57.674H58.9758C59.3349 57.6864 59.6618 57.4589 59.7904 57.1068C59.9191 56.7551 59.8206 56.3562 59.5455 56.1135L50.2738 47.6849ZM49.7028 49.5267L56.6481 55.8504H42.7401L49.7028 49.5267ZM51.2133 66.693L48.2789 66.6645V63.0307H51.2133V66.693ZM55.8865 66.7384L52.9521 66.7099V62.1532C52.9492 61.6408 52.5603 61.2227 52.0717 61.2071H47.3878C46.9077 61.2071 46.5401 61.6497 46.5401 62.1532V66.6471L43.3884 66.6168V57.674H55.8865V66.7384Z" fill="#B16D03"/>
</svg>
